# Blender 4.0.2
# www.blender.org
mtllib Treska.mtl
o Цилиндр
v 0.000000 -0.565821 -1.736664
v 0.000000 0.565821 -1.706071
v 0.338806 -0.565821 -1.703294
v 0.332838 0.565821 -1.673289
v 0.664592 -0.565821 -1.604468
v 0.652885 0.565821 -1.576204
v 0.964839 -0.565821 -1.443983
v 0.947842 0.565821 -1.418546
v 1.228007 -0.565821 -1.228007
v 1.206375 0.565821 -1.206375
v 1.443983 -0.565821 -0.964839
v 1.418546 0.565821 -0.947842
v 1.604468 -0.565821 -0.664592
v 1.576204 0.565821 -0.652885
v 1.703294 -0.565821 -0.338806
v 1.673289 0.565821 -0.332838
v 1.736664 -0.565821 0.000000
v 1.706071 0.565821 0.000000
v 1.703294 -0.565821 0.338806
v 1.673289 0.565821 0.332838
v 1.604468 -0.565821 0.664592
v 1.576204 0.565821 0.652885
v 1.443983 -0.565821 0.964839
v 1.418546 0.565821 0.947842
v 1.228007 -0.565821 1.228007
v 1.206375 0.565821 1.206375
v 0.964839 -0.565821 1.443983
v 0.947842 0.565821 1.418546
v 0.664592 -0.565821 1.604468
v 0.652885 0.565821 1.576204
v 0.338806 -0.565821 1.703294
v 0.332838 0.565821 1.673289
v 0.000000 -0.565821 1.736664
v 0.000000 0.565821 1.706071
v -0.338806 -0.565821 1.703294
v -0.332838 0.565821 1.673289
v -0.664592 -0.565821 1.604468
v -0.652885 0.565821 1.576204
v -0.964839 -0.565821 1.443983
v -0.947842 0.565821 1.418546
v -1.228007 -0.565821 1.228007
v -1.206375 0.565821 1.206375
v -1.443983 -0.565821 0.964839
v -1.418546 0.565821 0.947842
v -1.604468 -0.565821 0.664592
v -1.576204 0.565821 0.652885
v -1.703294 -0.565821 0.338806
v -1.673289 0.565821 0.332838
v -1.736664 -0.565821 0.000000
v -1.706071 0.565821 0.000000
v -1.703294 -0.565821 -0.338806
v -1.673289 0.565821 -0.332838
v -1.604468 -0.565821 -0.664592
v -1.576204 0.565821 -0.652885
v -1.443983 -0.565821 -0.964839
v -1.418546 0.565821 -0.947842
v -1.228007 -0.565821 -1.228007
v -1.206375 0.565821 -1.206375
v -0.964839 -0.565821 -1.443983
v -0.947842 0.565821 -1.418546
v -0.664592 -0.565821 -1.604468
v -0.652885 0.565821 -1.576204
v -0.338806 -0.565821 -1.703294
v -0.332838 0.565821 -1.673289
v 0.338806 0.565821 -1.703294
v 0.000000 0.565821 -1.736664
v 0.664592 0.565821 -1.604468
v 0.964839 0.565821 -1.443983
v 1.228007 0.565821 -1.228007
v 1.443983 0.565821 -0.964839
v 1.604468 0.565821 -0.664592
v 1.703294 0.565821 -0.338806
v 1.736664 0.565821 0.000000
v 1.703294 0.565821 0.338806
v 1.604468 0.565821 0.664592
v 1.443983 0.565821 0.964839
v 1.228007 0.565821 1.228007
v 0.964839 0.565821 1.443983
v 0.664592 0.565821 1.604468
v 0.338806 0.565821 1.703294
v 0.000000 0.565821 1.736664
v -0.338806 0.565821 1.703294
v -0.664592 0.565821 1.604468
v -0.964839 0.565821 1.443983
v -1.228007 0.565821 1.228007
v -1.443983 0.565821 0.964839
v -1.604468 0.565821 0.664592
v -1.703294 0.565821 0.338806
v -1.736664 0.565821 0.000000
v -1.703294 0.565821 -0.338806
v -1.604468 0.565821 -0.664592
v -1.443983 0.565821 -0.964839
v -1.228007 0.565821 -1.228007
v -0.964839 0.565821 -1.443983
v -0.664592 0.565821 -1.604468
v -0.338806 0.565821 -1.703294
v -0.000000 0.500589 -1.706071
v 0.332838 0.500589 -1.673289
v 0.652885 0.500589 -1.576204
v 0.947842 0.500589 -1.418546
v 1.206375 0.500589 -1.206375
v 1.418546 0.500589 -0.947842
v 1.576204 0.500589 -0.652885
v 1.673289 0.500589 -0.332838
v 1.706071 0.500589 0.000000
v 1.673289 0.500589 0.332838
v 1.576204 0.500589 0.652885
v 1.418546 0.500589 0.947842
v 1.206375 0.500589 1.206375
v 0.947842 0.500589 1.418546
v 0.652885 0.500589 1.576204
v 0.332838 0.500589 1.673289
v -0.000000 0.500589 1.706071
v -0.332838 0.500589 1.673289
v -0.652885 0.500589 1.576204
v -0.947842 0.500589 1.418546
v -1.206375 0.500589 1.206375
v -1.418546 0.500589 0.947842
v -1.576204 0.500589 0.652885
v -1.673289 0.500589 0.332838
v -1.706071 0.500589 0.000000
v -1.673289 0.500589 -0.332838
v -1.576204 0.500589 -0.652885
v -1.418546 0.500589 -0.947842
v -1.206375 0.500589 -1.206375
v -0.947842 0.500589 -1.418546
v -0.652885 0.500589 -1.576204
v -0.332838 0.500589 -1.673289
vn -0.0000 -0.0000 -1.0000
vn 0.1951 -0.0000 -0.9808
vn 0.3827 -0.0000 -0.9239
vn 0.5556 -0.0000 -0.8315
vn 0.7071 -0.0000 -0.7071
vn 0.8315 -0.0000 -0.5556
vn 0.9239 -0.0000 -0.3827
vn 0.9808 -0.0000 -0.1951
vn 1.0000 -0.0000 -0.0000
vn 0.9808 -0.0000 0.1951
vn 0.9239 -0.0000 0.3827
vn 0.8315 -0.0000 0.5556
vn 0.7071 -0.0000 0.7071
vn 0.5556 -0.0000 0.8315
vn 0.3827 -0.0000 0.9239
vn 0.1951 -0.0000 0.9808
vn -0.0000 -0.0000 1.0000
vn -0.1951 -0.0000 0.9808
vn -0.3827 -0.0000 0.9239
vn -0.5556 -0.0000 0.8315
vn -0.7071 -0.0000 0.7071
vn -0.8315 -0.0000 0.5556
vn -0.9239 -0.0000 0.3827
vn -0.9808 -0.0000 0.1951
vn -1.0000 -0.0000 -0.0000
vn -0.9808 -0.0000 -0.1951
vn -0.9239 -0.0000 -0.3827
vn -0.8315 -0.0000 -0.5556
vn -0.7071 -0.0000 -0.7071
vn -0.5556 -0.0000 -0.8315
vn -0.3827 -0.0000 -0.9239
vn -0.1951 -0.0000 -0.9808
vn -0.0000 -1.0000 -0.0000
vn -0.0000 1.0000 -0.0000
vt 1.000000 0.685185
vt 1.000000 0.998126
vt 0.968750 0.998126
vt 0.968750 0.685185
vt 0.937500 0.998126
vt 0.937500 0.685185
vt 0.906250 0.998126
vt 0.906250 0.685185
vt 0.875000 0.998126
vt 0.875000 0.685185
vt 0.843750 0.998126
vt 0.843750 0.685185
vt 0.812500 0.998126
vt 0.812500 0.685185
vt 0.781250 0.998126
vt 0.781250 0.685185
vt 0.750000 0.998126
vt 0.750000 0.685185
vt 0.718750 0.998126
vt 0.718750 0.685185
vt 0.687500 0.998126
vt 0.687500 0.685185
vt 0.656250 0.998126
vt 0.656250 0.685185
vt 0.625000 0.998126
vt 0.625000 0.685185
vt 0.593750 0.998126
vt 0.593750 0.685185
vt 0.562500 0.998126
vt 0.562500 0.685185
vt 0.531250 0.998126
vt 0.531250 0.685185
vt 0.500000 0.998126
vt 0.500000 0.685185
vt 0.468750 0.998126
vt 0.468750 0.685185
vt 0.437500 0.998126
vt 0.437500 0.685185
vt 0.406250 0.998126
vt 0.406250 0.685185
vt 0.375000 0.998126
vt 0.375000 0.685185
vt 0.343750 0.998126
vt 0.343750 0.685185
vt 0.312500 0.998126
vt 0.312500 0.685185
vt 0.281250 0.998126
vt 0.281250 0.685185
vt 0.250000 0.998126
vt 0.250000 0.685185
vt 0.218750 0.998126
vt 0.218750 0.685185
vt 0.187500 0.998126
vt 0.187500 0.685185
vt 0.156250 0.998126
vt 0.156250 0.685185
vt 0.125000 0.998126
vt 0.125000 0.685185
vt 0.093750 0.998126
vt 0.093750 0.685185
vt 0.062500 0.998126
vt 0.062500 0.685185
vt 0.195977 0.065813
vt 0.166655 0.030085
vt 0.031250 0.998126
vt 0.031250 0.685185
vt 0.000000 0.998126
vt 0.000000 0.685185
vt 0.121789 0.646245
vt 0.142643 0.641215
vt 0.162696 0.626319
vt 0.181176 0.602129
vt 0.197375 0.569575
vt 0.210668 0.529908
vt 0.220546 0.484653
vt 0.226629 0.435547
vt 0.228683 0.384479
vt 0.226629 0.333411
vt 0.220546 0.284306
vt 0.210668 0.239050
vt 0.197375 0.199383
vt 0.181176 0.166829
vt 0.162696 0.142640
vt 0.142643 0.127744
vt 0.121789 0.122714
vt 0.100935 0.127744
vt 0.080883 0.142640
vt 0.062402 0.166829
vt 0.046204 0.199383
vt 0.032910 0.239050
vt 0.023032 0.284306
vt 0.016949 0.333411
vt 0.014895 0.384479
vt 0.016949 0.435547
vt 0.023032 0.484653
vt 0.032910 0.529908
vt 0.046204 0.569575
vt 0.062402 0.602129
vt 0.080883 0.626319
vt 0.100935 0.641215
vt 0.122363 0.644944
vt 0.143182 0.639958
vt 0.143555 0.644522
vt 0.122363 0.649598
vt 0.163200 0.625190
vt 0.163933 0.629489
vt 0.181650 0.601208
vt 0.182713 0.605077
vt 0.197820 0.568934
vt 0.199173 0.572224
vt 0.211092 0.529607
vt 0.212683 0.532193
vt 0.220953 0.484740
vt 0.222721 0.486521
vt 0.227025 0.436057
vt 0.228902 0.436965
vt 0.229076 0.385428
vt 0.230989 0.385428
vt 0.227025 0.334799
vt 0.228902 0.333891
vt 0.220953 0.286115
vt 0.222721 0.284334
vt 0.211092 0.241248
vt 0.212683 0.238663
vt 0.197820 0.201922
vt 0.199173 0.198631
vt 0.181650 0.169648
vt 0.182713 0.165778
vt 0.163200 0.145666
vt 0.163933 0.141367
vt 0.143182 0.130898
vt 0.143555 0.126334
vt 0.122363 0.125911
vt 0.122363 0.121258
vt 0.101544 0.130898
vt 0.101171 0.126334
vt 0.081526 0.145666
vt 0.080793 0.141367
vt 0.063076 0.169648
vt 0.062013 0.165778
vt 0.046905 0.201922
vt 0.045552 0.198631
vt 0.033634 0.241248
vt 0.032043 0.238663
vt 0.023773 0.286115
vt 0.022005 0.284334
vt 0.017700 0.334799
vt 0.015824 0.333891
vt 0.015650 0.385428
vt 0.013736 0.385428
vt 0.017700 0.436057
vt 0.015824 0.436965
vt 0.023773 0.484740
vt 0.022005 0.486521
vt 0.033634 0.529607
vt 0.032043 0.532193
vt 0.046905 0.568934
vt 0.045552 0.572224
vt 0.063076 0.601208
vt 0.062013 0.605077
vt 0.081526 0.625190
vt 0.080793 0.629489
vt 0.101544 0.639958
vt 0.101171 0.644522
vt 0.142863 0.643920
vt 0.121853 0.649019
vt 0.100843 0.643920
vt 0.080641 0.628817
vt 0.062022 0.604292
vt 0.045703 0.571287
vt 0.032310 0.531070
vt 0.022358 0.485187
vt 0.016229 0.435401
vt 0.014160 0.383625
vt 0.016229 0.331849
vt 0.022358 0.282062
vt 0.032310 0.236179
vt 0.045703 0.195962
vt 0.062022 0.162957
vt 0.080641 0.138432
vt 0.100843 0.123329
vt 0.121853 0.118230
vt 0.142863 0.123329
vt 0.163066 0.138432
vt 0.181684 0.162957
vt 0.198004 0.195962
vt 0.211397 0.236179
vt 0.221349 0.282062
vt 0.227477 0.331849
vt 0.229546 0.383625
vt 0.227477 0.435400
vt 0.221349 0.485187
vt 0.211397 0.531070
vt 0.198004 0.571287
vt 0.181684 0.604292
vt 0.163066 0.628817
vt 0.255526 0.031906
vt 0.260839 0.031975
vt 0.260839 0.034202
vt 0.255526 0.034270
vt 0.231705 0.095134
vt 0.250000 0.031883
vt 0.265736 0.034090
vt 0.204851 0.035596
vt 0.204003 0.018758
vt 0.270028 0.033940
vt 0.249080 0.049013
vt 0.159774 0.032175
vt 0.273551 0.033758
vt 0.250000 0.034293
vt 0.119012 0.053963
vt 0.276168 0.033549
vt 0.083284 0.083284
vt 0.277780 0.033323
vt 0.053963 0.119012
vt 0.278324 0.033088
vt 0.032175 0.159774
vt 0.277780 0.032853
vt 0.018758 0.204003
vt 0.276168 0.032627
vt 0.080736 0.033688
vt 0.273551 0.032419
vt 0.033725 0.090278
vt 0.073968 0.035458
vt 0.270028 0.032236
vt 0.037876 0.135359
vt 0.044601 0.023409
vt 0.265736 0.032086
s 1
usemtl Материал
f 1/1/1 66/2/1 65/3/2 3/4/2
f 3/4/2 65/3/2 67/5/3 5/6/3
f 5/6/3 67/5/3 68/7/4 7/8/4
f 7/8/4 68/7/4 69/9/5 9/10/5
f 9/10/5 69/9/5 70/11/6 11/12/6
f 11/12/6 70/11/6 71/13/7 13/14/7
f 13/14/7 71/13/7 72/15/8 15/16/8
f 15/16/8 72/15/8 73/17/9 17/18/9
f 17/18/9 73/17/9 74/19/10 19/20/10
f 19/20/10 74/19/10 75/21/11 21/22/11
f 21/22/11 75/21/11 76/23/12 23/24/12
f 23/24/12 76/23/12 77/25/13 25/26/13
f 25/26/13 77/25/13 78/27/14 27/28/14
f 27/28/14 78/27/14 79/29/15 29/30/15
f 29/30/15 79/29/15 80/31/16 31/32/16
f 31/32/16 80/31/16 81/33/17 33/34/17
f 33/34/17 81/33/17 82/35/18 35/36/18
f 35/36/18 82/35/18 83/37/19 37/38/19
f 37/38/19 83/37/19 84/39/20 39/40/20
f 39/40/20 84/39/20 85/41/21 41/42/21
f 41/42/21 85/41/21 86/43/22 43/44/22
f 43/44/22 86/43/22 87/45/23 45/46/23
f 45/46/23 87/45/23 88/47/24 47/48/24
f 47/48/24 88/47/24 89/49/25 49/50/25
f 49/50/25 89/49/25 90/51/26 51/52/26
f 51/52/26 90/51/26 91/53/27 53/54/27
f 53/54/27 91/53/27 92/55/28 55/56/28
f 55/56/28 92/55/28 93/57/29 57/58/29
f 57/58/29 93/57/29 94/59/30 59/60/30
f 59/60/30 94/59/30 95/61/31 61/62/31
f 58/63/13 56/64/12 124/64/12 125/63/13
f 61/62/31 95/61/31 96/65/32 63/66/32
f 63/66/32 96/65/32 66/67/1 1/68/1
f 1/69/33 3/70/33 5/71/33 7/72/33 9/73/33 11/74/33 13/75/33 15/76/33 17/77/33 19/78/33 21/79/33 23/80/33 25/81/33 27/82/33 29/83/33 31/84/33 33/85/33 35/86/33 37/87/33 39/88/33 41/89/33 43/90/33 45/91/33 47/92/33 49/93/33 51/94/33 53/95/33 55/96/33 57/97/33 59/98/33 61/99/33 63/100/33
f 2/101/34 4/102/34 65/103/34 66/104/34
f 4/102/34 6/105/34 67/106/34 65/103/34
f 6/105/34 8/107/34 68/108/34 67/106/34
f 8/107/34 10/109/34 69/110/34 68/108/34
f 10/109/34 12/111/34 70/112/34 69/110/34
f 12/111/34 14/113/34 71/114/34 70/112/34
f 14/113/34 16/115/34 72/116/34 71/114/34
f 16/115/34 18/117/34 73/118/34 72/116/34
f 18/117/34 20/119/34 74/120/34 73/118/34
f 20/119/34 22/121/34 75/122/34 74/120/34
f 22/121/34 24/123/34 76/124/34 75/122/34
f 24/123/34 26/125/34 77/126/34 76/124/34
f 26/125/34 28/127/34 78/128/34 77/126/34
f 28/127/34 30/129/34 79/130/34 78/128/34
f 30/129/34 32/131/34 80/132/34 79/130/34
f 32/131/34 34/133/34 81/134/34 80/132/34
f 34/133/34 36/135/34 82/136/34 81/134/34
f 36/135/34 38/137/34 83/138/34 82/136/34
f 38/137/34 40/139/34 84/140/34 83/138/34
f 40/139/34 42/141/34 85/142/34 84/140/34
f 42/141/34 44/143/34 86/144/34 85/142/34
f 44/143/34 46/145/34 87/146/34 86/144/34
f 46/145/34 48/147/34 88/148/34 87/146/34
f 48/147/34 50/149/34 89/150/34 88/148/34
f 50/149/34 52/151/34 90/152/34 89/150/34
f 52/151/34 54/153/34 91/154/34 90/152/34
f 54/153/34 56/155/34 92/156/34 91/154/34
f 56/155/34 58/157/34 93/158/34 92/156/34
f 58/157/34 60/159/34 94/160/34 93/158/34
f 60/159/34 62/161/34 95/162/34 94/160/34
f 62/161/34 64/163/34 96/164/34 95/162/34
f 64/163/34 2/101/34 66/104/34 96/164/34
f 98/165/34 97/166/34 128/167/34 127/168/34 126/169/34 125/170/34 124/171/34 123/172/34 122/173/34 121/174/34 120/175/34 119/176/34 118/177/34 117/178/34 116/179/34 115/180/34 114/181/34 113/182/34 112/183/34 111/184/34 110/185/34 109/186/34 108/187/34 107/188/34 106/189/34 105/190/34 104/191/34 103/192/34 102/193/34 101/194/34 100/195/34 99/196/34
f 32/197/32 30/198/31 111/198/31 112/197/32
f 6/199/19 4/200/18 98/200/18 99/199/19
f 60/201/14 58/63/13 125/63/13 126/201/14
f 34/202/1 32/197/32 112/197/32 113/202/1
f 8/203/20 6/199/19 99/199/19 100/203/20
f 62/204/15 60/201/14 126/201/14 127/204/15
f 36/205/2 34/202/1 113/202/1 114/205/2
f 10/206/21 8/203/20 100/203/20 101/206/21
f 64/207/16 62/204/15 127/204/15 128/207/16
f 38/208/3 36/205/2 114/205/2 115/208/3
f 12/209/22 10/206/21 101/206/21 102/209/22
f 2/210/17 64/207/16 128/207/16 97/210/17
f 40/211/4 38/208/3 115/208/3 116/211/4
f 14/212/23 12/209/22 102/209/22 103/212/23
f 42/213/5 40/211/4 116/211/4 117/213/5
f 16/214/24 14/212/23 103/212/23 104/214/24
f 44/215/6 42/213/5 117/213/5 118/215/6
f 18/216/25 16/214/24 104/214/24 105/216/25
f 46/217/7 44/215/6 118/215/6 119/217/7
f 20/218/26 18/216/25 105/216/25 106/218/26
f 48/219/8 46/217/7 119/217/7 120/219/8
f 22/220/27 20/218/26 106/218/26 107/220/27
f 50/221/9 48/219/8 120/219/8 121/221/9
f 24/222/28 22/220/27 107/220/27 108/222/28
f 52/223/10 50/221/9 121/221/9 122/224/10
f 26/225/29 24/222/28 108/222/28 109/225/29
f 54/226/11 52/223/10 122/224/10 123/227/11
f 28/228/30 26/225/29 109/225/29 110/228/30
f 56/64/12 54/226/11 123/227/11 124/64/12
f 30/198/31 28/228/30 110/228/30 111/198/31
f 4/200/18 2/210/17 97/210/17 98/200/18
